<?xml version="1.0" encoding="utf-8"?>
<!-- Generator: Adobe Illustrator 25.4.1, SVG Export Plug-In . SVG Version: 6.00 Build 0)  -->
<svg version="1.1" id="Layer_1" xmlns="http://www.w3.org/2000/svg" xmlns:xlink="http://www.w3.org/1999/xlink" x="0px" y="0px"
	 viewBox="0 0 700 700" style="enable-background:new 0 0 700 700;" xml:space="preserve">
<style type="text/css">
	.st0{fill:#FFFFFF;}
</style>
<g id="Layer_1_00000018919268758015062720000005672959971755005346_">
	<path class="st0" d="M58.7,229.9c4.5-3.3,87.7-19,123.2-25.6c57.3-10.6,122.5-22,134-22c13.3,0,44.6,18.1,81,40
		c13.3,8,28.5,17.1,31.4,17.7c0.2,0,0.7,0.1,1.4,0.1c5.7-29.8,36.9-41.1,56-41.1c1,0,2,0,3,0.1c3.1,0.2,6.4,0.3,9.4,0.4
		c15.8,0.6,30.8,1.1,43.4,10.6c9.7,7.3,25,45.1,25.8,85.2c0.8,36.2-16.8,86.8-28.9,92.4l-0.7,0.2c-14.8,4.2-28.6,6.3-41.1,6.3
		c-44.9,0-61.7-26.4-66-35.6l-2,0.2c-2.7,1.1-13,5.3-30.3,10.1c-2.9,0.8-6.2,1.2-10,1.2c-9.9,0-21.3-2.7-30.6-4.8
		c-5.1-1.2-9.5-2.2-12.1-2.4c-2.8-0.2-7.6-0.3-14.6-0.3c-3.7,0-7.5,0-11.1,0.1c-4.3,9.1-12.3,17.9-19.5,17.9c-0.3,0-0.6,0-1-0.1
		c-4.7-0.5-10.7-4.1-17-8.3c-0.3,0.6-0.5,1.2-0.9,1.8c-3.2,6.5-9.6,14.1-17.1,14.1c-2.4,0-4.7-0.8-6.7-2.4l-1-0.7
		c-4.2-3.3-16.8-13.1-31.3-25.3c-48.3-3.5-52-8.4-53.8-10.9c-3.5-4.7-4.4-10.4-2.7-16.6c1.6-5.8,5.6-11.3,9.7-15.1
		c-17.2-18-22.8-28.8-18.5-35.7c3-4.8,8.7-10.5,16.8-16.8c-46.6,2.2-77.7,3.3-92.4,3.3c-22.7,0-30.1-8.7-32.3-16
		C50,243.1,54.4,233.1,58.7,229.9L58.7,229.9z M543.6,365.3c2.5-5.6,5.1-12.5,7.3-20.2l-29.8,37.4c3.8-0.7,7.7-1.6,11.6-2.7
		L543.6,365.3z M554.7,330.7c1.4-6.4,2.5-12.9,3.1-19.6l-55.1,73.6c3-0.2,6.2-0.5,9.4-0.9L554.7,330.7z M448.3,366.5l-0.5,0.5
		c0.8,0.7,1.5,1.5,2.3,2.2l0.7-0.7C449.8,367.8,449,367.2,448.3,366.5L448.3,366.5z M456.2,371.6l-1.3,1.4c1.2,0.9,2.6,1.7,3.9,2.6
		l2.3-2.4C459.3,372.7,457.7,372.2,456.2,371.6L456.2,371.6z M469.9,373.8c-0.4,0-0.8,0-1.1,0l-4.4,4.7c1.7,0.8,3.5,1.5,5.4,2.2
		l5.7-7.6C473.7,373.4,471.8,373.7,469.9,373.8L469.9,373.8z M443.7,362.4l0.5-0.5c-1-1.3-1.7-2.6-2.3-3.9l-1.2,0.1
		C441.5,359.4,442.6,360.8,443.7,362.4L443.7,362.4z M486.1,369.1L476,382.5c1.7,0.4,3.5,0.8,5.4,1.1l43.3-59l4.7,3.8l-41.2,56.1
		c2.2,0.2,4.5,0.3,6.9,0.4l63.4-84.8c0-1.5,0-3.1,0-4.6c-1-40.8-16.8-73.8-22.1-77.9c-10.4-7.8-24-8.3-38.5-8.9
		c-3.1-0.1-6.4-0.2-9.6-0.4c-0.8-0.1-1.6-0.1-2.5-0.1c-14.1,0-35.9,6.9-44.4,24.8c5.5-5.8,14-11.2,23.8-11.2c8.6,0,16.8,4,24.2,11.8
		l0,0l0.9,0.9c1.2,1.4,2.5,2.8,3.7,4.4c0.6,0.7,1,1.4,1.5,2.1c0.4,0.6,0.9,1.3,1.2,1.9c0.1,0.1,0.2,0.2,0.2,0.3
		c6.4,10.3,11.1,25.1,13.3,41.2l0,0c0.2,1.1,0.3,2.3,0.5,3.4c0,0.3,0.1,0.5,0.1,0.8c0.1,0.9,0.2,1.8,0.3,2.7
		c0.1,0.6,0.1,1.1,0.2,1.6c0.1,0.6,0.1,1.3,0.2,2c0.1,0.8,0.1,1.6,0.2,2.4c0,0.4,0.1,0.8,0.1,1.2c0,1.1,0.1,2.1,0.1,3.2
		c0,0.2,0,0.3,0,0.5c0.3,12.9-1.1,25.9-4.7,37.3c0,0.1,0,0.1-0.1,0.2c-0.4,1.1-0.7,2.1-1,3.2c0,0.1,0,0.1-0.1,0.2
		c-0.5,1.2-0.9,2.4-1.3,3.5c-0.5,1.2-1,2.3-1.5,3.4l-0.9,1.8h-0.1C497.8,359.7,492.5,365.5,486.1,369.1L486.1,369.1z M300.6,371.2
		c1.5,0,5.7-3.1,9.1-8.4c-2.7,0.1-4.3,0.1-4.4,0.1h-0.2c0,0-0.6,0-1.3,0h-0.1h-0.3c-3,0-9.9-0.2-18.9-0.4c0.4,0.3,0.9,0.6,1.3,0.9
		C289.6,365.8,297.2,370.8,300.6,371.2L300.6,371.2z M262.5,377.6l1,0.8c0.6,0.4,1,0.5,1.3,0.5c4,0,9.7-8.8,10.3-12
		c-0.8-1.9-0.3-3.4,0.1-4.3l0.2-0.3c-9.7-0.3-20.9-0.7-32.1-1.3c-0.6,0-1.2-0.1-1.8-0.1C251.4,368.9,259.3,375.1,262.5,377.6
		L262.5,377.6z M168.1,286.5c-0.1,0.6-0.1,6.3,19,25.9l0,0c0.1,0,0.3-0.1,0.4-0.1s0.2-0.1,0.4-0.1s0.3-0.1,0.5-0.1
		c0.1,0,0.3-0.1,0.4-0.1c0.2,0,0.4-0.1,0.6-0.1c0.1,0,0.3-0.1,0.4-0.1c0.2,0,0.4-0.1,0.6-0.2c0.1,0,0.3-0.1,0.4-0.1
		c0.3-0.1,0.5-0.1,0.8-0.2c0.1,0,0.3-0.1,0.4-0.1c0.3-0.1,0.6-0.1,0.9-0.2c0.1,0,0.2-0.1,0.2-0.1c1.5-0.4,3.2-0.8,5.2-1.3
		c0.1,0,0.1,0,0.2,0c0.5-0.1,1-0.2,1.3-0.3c0.1,0,0.2-0.1,0.4-0.1c0.5-0.1,0.9-0.2,1.3-0.3c0.2-0.1,0.4-0.1,0.6-0.1
		c0.4-0.1,0.8-0.2,1.2-0.3c0.3-0.1,0.7-0.2,1-0.2c0.3-0.1,0.6-0.1,0.9-0.2c1.3-0.3,2.9-0.7,4.3-1c4.2-1,9.1-2.1,13.8-3.3L205.1,285
		l4.2-4.4l20.5,21.5c3.7-0.9,7.2-1.8,10.1-2.6l-22.3-23.4l4.2-4.4l24.6,25.8c0.2-0.1,0.3-0.1,0.5-0.2c1.4-0.8,4.2-2.4,7.6-4.5
		l-29-30.4c-9.5,0.5-20.2,1-31.3,1.6C181,272.8,171.8,280.8,168.1,286.5L168.1,286.5z M272.3,260.8l10.3,10.8
		C281.1,267.7,278.1,262.7,272.3,260.8z M263.3,260.2c-2,0.1-5.3,0.3-9.8,0.5l19.2,20.2c2.3-1.5,4.4-2.9,6.4-4.2L263.3,260.2z
		 M245.5,261.2c-3.6,0.2-7.6,0.4-12,0.6l26.2,27.5c2.5-1.6,5.1-3.3,7.8-5L245.5,261.2z M61.1,249.2c1.9,6.1,10.4,9.4,23.8,9.4
		c2.1,0,4.6,0,7.4-0.1v-6.8h6v6.7c2.8-0.1,5.7-0.1,8.9-0.2v-9.9h5.9v9.8c2.8-0.1,5.8-0.2,8.9-0.3v-9.4h5.9v9.2
		c2.9-0.1,5.8-0.2,8.9-0.3v-8.1h6.1v7.8c2.9-0.1,5.8-0.2,8.9-0.4v-6.7h5.9v6.4c2.9-0.1,5.9-0.3,8.9-0.4v-11.6h5.9v11.2
		c3-0.1,5.9-0.3,8.9-0.4v-10.8h5.9v10.5c0.7,0,1.3-0.1,2-0.1s1.3-0.1,2.1-0.1l1.2-0.1c1.2-0.1,2.4-0.1,3.6-0.2v-13.9h5.9V254
		c3-0.2,6-0.3,8.9-0.4v-17.9h5.9v17.6c1,0,2-0.1,3-0.2h0.1c0.9,0,1.6-0.1,2.5-0.1c0.5,0,0.9,0,1.3-0.1c0.5,0,1,0,1.4-0.1
		c0.2,0,0.4,0,0.6,0V231h5.9v21.5c0.3,0,0.6,0,0.9,0c0.6,0,1.2-0.1,1.8-0.1c0.5,0,1-0.1,1.4-0.1s0.7,0,1-0.1c0.6,0,1.2-0.1,1.8-0.1
		c0.4,0,0.8,0,1-0.1c0.3,0,0.6,0,0.9,0v-22.6h6.3v22.3c3.3-0.2,6.4-0.3,8.9-0.5v-18.7h5.9v18.4c2.1-0.1,3.3-0.2,3.3-0.2
		c0.9-0.1,1.6-0.1,2.4-0.1c1,0,2.1,0.1,3.1,0.2v-12h5.9v13.6c3.6,1.5,6.6,3.8,8.9,6.4V245h5.9v24.1c1,2.9,1.5,5.5,1.5,7v2.5l-2,1.4
		c-6.4,4.5-33.4,22.1-39.8,25.5c-3.8,2-18.2,5.4-39.7,10.5c-10.3,2.4-20,4.7-22.4,5.6c-0.1,0-0.3,0.1-0.4,0.2
		c-0.1,0-0.2,0.1-0.3,0.2c-3,1.6-8.5,7-10.2,13c-0.9,3.2-0.6,5.8,1,8c0.5,0.4,1.3,0.9,2.5,1.3V341h5.9v5c2.5,0.5,5.5,1,8.9,1.5v-8.4
		h5.9v9.2c2.8,0.3,5.7,0.6,8.9,1v-7h5.9v7.6c2,0.2,4,0.3,6,0.5l2.9,0.2V340h5.9v11c3,0.2,5.9,0.4,8.9,0.6v-9.2h6.4v9.5
		c3,0.1,6,0.3,8.9,0.4v-13.9h5.9v13.9c3,0.1,6,0.2,8.9,0.3v-16h5.9v16.2c3.1,0.1,6.1,0.2,8.9,0.2v-17.2h5.9v17.5
		c3.6,0.1,6.6,0.1,8.9,0.2v-20.7h5.9v20.7c0.7,0,1.7,0,3-0.1h0.1c0.2,0,0.4,0,0.6,0c1.5,0,3.2-0.1,5.2-0.1v-23.7h5.9v23.6l2.9-0.1
		l0,0c2,0,4,0,6,0v-26.7h5.9v26.7c3.7,0,6.7,0.1,8.9,0.2v-31.6h5.9V354c2.6,0.5,5.6,1.2,8.9,2v-34.2h5.9v35.6
		c2.9,0.7,5.9,1.3,8.9,1.8v-44.5h5.9v45.4c2.9,0.4,5.6,0.6,8.2,0.6c0.4,0,0.8,0,1.2,0v-54.6h5.9V360c0.2,0,0.4-0.1,0.6-0.1
		c3-0.8,5.7-1.6,8.3-2.4v-56.7h5.9v54.9c3.5-1.1,6.6-2.2,8.9-3.1v-58.8h5.9v56.5c0.5-0.2,0.8-0.3,0.8-0.3l0.7-0.3l7.5-0.7v-55.2h5.9
		v54.6l8.9-0.8v-48.4h5.9V347l8.9-0.8v-37h6.7v36.5l8.9-0.8v-27.7h5.9v27.1l9-0.8V325h5.9v9.2c7.9-29.4,1-71.9-12.4-89.3
		c-0.3-0.4-0.7-0.9-1-1.3c-13.6,1.8-31.1,4.1-43.6,5.2l-0.1,0.4l-3.9-0.1c-5.6,0.4-9.2,0.4-11.3,0.1c-4.2-0.7-14.2-6.6-34.5-18.8
		c-25.7-15.4-64.5-38.7-76.6-38.7c-23.2,0-240.1,41.7-252.2,46C62.3,239.1,59.7,244.4,61.1,249.2L61.1,249.2z"/>
</g>
<g id="Layer_2_00000179641863635718851330000017051211429887831692_">
</g>
</svg>
