<?xml version="1.0" encoding="utf-8"?>
<!-- Generator: Adobe Illustrator 25.4.1, SVG Export Plug-In . SVG Version: 6.00 Build 0)  -->
<svg version="1.1" id="Layer_1" xmlns="http://www.w3.org/2000/svg" xmlns:xlink="http://www.w3.org/1999/xlink" x="0px" y="0px"
	 viewBox="0 0 700 700" style="enable-background:new 0 0 700 700;" xml:space="preserve">
<style type="text/css">
	.st0{fill:#FFFFFF;}
</style>
<g id="Layer_1_00000038383517105981906140000012331916743018744453_">
	<path class="st0" d="M613.4,220.6c-4.7-3.3-92-19-129.3-25.6c-60.1-10.6-128.6-22-140.6-22c-14,0-46.8,18.1-85,40
		c-14,8-29.9,17.1-33,17.7c-0.2,0-0.7,0.1-1.5,0.1c-6-29.8-38.7-41.1-58.8-41.1c-1.1,0-2.1,0-3.1,0.1c-3.3,0.2-6.7,0.3-9.9,0.4
		c-16.6,0.6-32.3,1.1-45.5,10.6c-10.2,7.3-26.2,45.1-27.1,85.2c-0.8,36.2,17.6,86.8,30.3,92.4l0.7,0.2c15.5,4.2,30,6.3,43.1,6.3
		c47.1,0,64.7-26.4,69.3-35.6l2.1,0.2c2.8,1.1,13.6,5.3,31.8,10.1c3,0.8,6.5,1.2,10.5,1.2c10.4,0,22.4-2.7,32.1-4.8
		c5.3-1.2,10-2.2,12.7-2.4c2.9-0.2,8-0.3,15.3-0.3c3.9,0,7.9,0,11.7,0.1c4.5,9.1,12.9,17.9,20.5,17.9c0.3,0,0.6,0,1-0.1
		c4.9-0.5,11.2-4.1,17.8-8.3c0.3,0.6,0.5,1.2,0.9,1.8c3.4,6.5,10.1,14.1,17.9,14.1c2.5,0,4.9-0.8,7-2.4l1-0.7
		c4.4-3.3,17.6-13.1,32.8-25.3c50.7-3.5,54.6-8.4,56.5-10.9c3.7-4.7,4.6-10.4,2.8-16.6c-1.7-5.8-5.9-11.3-10.2-15.1
		c18.1-18,23.9-28.8,19.4-35.7c-3.2-4.8-9.1-10.5-17.6-16.8c48.9,2.2,81.5,3.3,97,3.3c23.8,0,31.6-8.7,33.9-16
		C622.5,233.8,617.9,223.8,613.4,220.6L613.4,220.6z M104.5,356c-2.6-5.6-5.3-12.5-7.7-20.2l31.3,37.4c-4-0.7-8.1-1.6-12.2-2.7
		L104.5,356z M92.8,321.4c-1.5-6.4-2.6-12.9-3.3-19.6l57.8,73.6c-3.2-0.2-6.5-0.5-9.9-0.9L92.8,321.4z M204.5,357.2l0.5,0.5
		c-0.8,0.7-1.6,1.5-2.4,2.2l-0.7-0.7C202.9,358.5,203.7,357.9,204.5,357.2L204.5,357.2z M196.2,362.3l1.4,1.4
		c-1.3,0.9-2.7,1.7-4.1,2.6l-2.4-2.4C192.9,363.4,194.6,362.9,196.2,362.3L196.2,362.3z M181.8,364.5c0.4,0,0.8,0,1.2,0l4.6,4.7
		c-1.8,0.8-3.7,1.5-5.7,2.2l-6-7.6C177.8,364.1,179.8,364.4,181.8,364.5L181.8,364.5z M209.3,353.1l-0.5-0.5c1-1.3,1.8-2.6,2.4-3.9
		l1.3,0.1C211.6,350.1,210.5,351.5,209.3,353.1L209.3,353.1z M164.8,359.8l10.6,13.4c-1.8,0.4-3.7,0.8-5.7,1.1l-45.4-59l-4.9,3.8
		l43.2,56.1c-2.3,0.2-4.7,0.3-7.2,0.4l-66.5-84.8c0-1.5,0-3.1,0-4.6c1-40.8,17.6-73.8,23.2-77.9c10.9-7.8,25.2-8.3,40.4-8.9
		c3.3-0.1,6.7-0.2,10.1-0.4c0.8-0.1,1.7-0.1,2.6-0.1c14.8,0,37.7,6.9,46.6,24.8c-5.8-5.8-14.7-11.2-25-11.2c-9,0-17.6,4-25.4,11.8
		l0,0l-0.9,0.9c-1.3,1.4-2.6,2.8-3.9,4.4c-0.6,0.7-1.1,1.4-1.6,2.1c-0.4,0.6-0.9,1.3-1.3,1.9c-0.1,0.1-0.2,0.2-0.2,0.3
		c-6.7,10.3-11.6,25.1-14,41.2l0,0c-0.2,1.1-0.3,2.3-0.5,3.4c0,0.3-0.1,0.5-0.1,0.8c-0.1,0.9-0.2,1.8-0.3,2.7
		c-0.1,0.6-0.1,1.1-0.2,1.6c-0.1,0.6-0.1,1.3-0.2,2c-0.1,0.8-0.1,1.6-0.2,2.4c0,0.4-0.1,0.8-0.1,1.2c0,1.1-0.1,2.1-0.1,3.2
		c0,0.2,0,0.3,0,0.5c-0.3,12.9,1.2,25.9,4.9,37.3c0,0.1,0,0.1,0.1,0.2c0.4,1.1,0.7,2.1,1.1,3.2c0,0.1,0,0.1,0.1,0.2
		c0.5,1.2,0.9,2.4,1.4,3.5c0.5,1.2,1.1,2.3,1.6,3.4l0.9,1.8h0.1C152.5,350.4,158.1,356.2,164.8,359.8L164.8,359.8z M359.5,361.9
		c-1.6,0-6-3.1-9.6-8.4c2.8,0.1,4.5,0.1,4.6,0.1h0.2c0,0,0.6,0,1.4,0h0.1h0.3c3.2,0,10.4-0.2,19.8-0.4c-0.4,0.3-0.9,0.6-1.4,0.9
		C371,356.5,363.1,361.5,359.5,361.9L359.5,361.9z M399.5,368.3l-1,0.8c-0.6,0.4-1.1,0.5-1.4,0.5c-4.2,0-10.2-8.8-10.8-12
		c0.8-1.9,0.3-3.4-0.1-4.3L386,353c10.2-0.3,21.9-0.7,33.7-1.3c0.6,0,1.3-0.1,1.9-0.1C411.1,359.6,402.8,365.8,399.5,368.3
		L399.5,368.3z M498.5,277.2c0.1,0.6,0.1,6.3-19.9,25.9l0,0c-0.1,0-0.3-0.1-0.4-0.1s-0.2-0.1-0.4-0.1c-0.2,0-0.3-0.1-0.5-0.1
		c-0.1,0-0.3-0.1-0.4-0.1c-0.2,0-0.4-0.1-0.6-0.1c-0.1,0-0.3-0.1-0.4-0.1c-0.2,0-0.4-0.1-0.6-0.2c-0.1,0-0.3-0.1-0.4-0.1
		c-0.3-0.1-0.5-0.1-0.8-0.2c-0.1,0-0.3-0.1-0.4-0.1c-0.3-0.1-0.6-0.1-0.9-0.2c-0.1,0-0.2-0.1-0.2-0.1c-1.6-0.4-3.4-0.8-5.5-1.3
		c-0.1,0-0.1,0-0.2,0c-0.5-0.1-1-0.2-1.4-0.3c-0.1,0-0.2-0.1-0.4-0.1c-0.5-0.1-0.9-0.2-1.4-0.3c-0.2-0.1-0.4-0.1-0.6-0.1
		c-0.4-0.1-0.8-0.2-1.3-0.3c-0.3-0.1-0.7-0.2-1-0.2c-0.3-0.1-0.6-0.1-0.9-0.2c-1.4-0.3-3-0.7-4.5-1c-4.4-1-9.5-2.1-14.5-3.3
		l18.8-18.8l-4.4-4.4l-21.5,21.5c-3.9-0.9-7.6-1.8-10.6-2.6l23.4-23.4l-4.4-4.4l-25.8,25.8c-0.2-0.1-0.3-0.1-0.5-0.2
		c-1.5-0.8-4.4-2.4-8-4.5l30.4-30.4c10,0.5,21.2,1,32.9,1.6C485,263.5,494.7,271.5,498.5,277.2L498.5,277.2z M389.2,251.5
		l-10.8,10.8C380,258.4,383.1,253.4,389.2,251.5z M398.6,250.9c2.1,0.1,5.6,0.3,10.3,0.5l-20.2,20.2c-2.4-1.5-4.6-2.9-6.7-4.2
		L398.6,250.9z M417.3,251.9c3.8,0.2,8,0.4,12.6,0.6L402.4,280c-2.6-1.6-5.4-3.3-8.2-5L417.3,251.9z M610.8,239.9
		c-2,6.1-10.9,9.4-25,9.4c-2.2,0-4.8,0-7.8-0.1v-6.8h-6.3v6.7c-2.9-0.1-6-0.1-9.3-0.2V239h-6.2v9.8c-2.9-0.1-6.1-0.2-9.3-0.3v-9.4
		h-6.2v9.2c-3-0.1-6.1-0.2-9.3-0.3v-8.1H525v7.8c-3-0.1-6.1-0.2-9.3-0.4v-6.7h-6.2v6.4c-3-0.1-6.2-0.3-9.3-0.4V235H494v11.2
		c-3.1-0.1-6.2-0.3-9.3-0.4V235h-6.2v10.5c-0.7,0-1.4-0.1-2.1-0.1s-1.4-0.1-2.2-0.1l-1.3-0.1c-1.3-0.1-2.5-0.1-3.8-0.2v-13.9h-6.2
		v13.6c-3.2-0.2-6.3-0.3-9.3-0.4v-17.9h-6.2V244c-1.1,0-2.1-0.1-3.1-0.2h-0.1c-0.9,0-1.7-0.1-2.6-0.1c-0.5,0-0.9,0-1.4-0.1
		c-0.5,0-1,0-1.5-0.1c-0.2,0-0.4,0-0.6,0v-21.8h-6.2v21.5c-0.3,0-0.6,0-0.9,0c-0.6,0-1.3-0.1-1.9-0.1c-0.5,0-1-0.1-1.5-0.1
		c-0.4,0-0.7,0-1.1-0.1c-0.6,0-1.3-0.1-1.9-0.1c-0.4,0-0.8,0-1.1-0.1c-0.3,0-0.6,0-0.9,0v-22.6H416v22.3c-3.5-0.2-6.7-0.3-9.3-0.5
		v-18.7h-6.2v18.4c-2.2-0.1-3.5-0.2-3.5-0.2c-0.9-0.1-1.7-0.1-2.5-0.1c-1.1,0-2.2,0.1-3.3,0.2v-12H385v13.6
		c-3.8,1.5-6.9,3.8-9.3,6.4v-13.8h-6.2v24.1c-1.1,2.9-1.6,5.5-1.6,7v2.5l2.1,1.4c6.7,4.5,35.1,22.1,41.8,25.5
		c4,2,19.1,5.4,41.7,10.5c10.8,2.4,21,4.7,23.5,5.6c0.1,0,0.3,0.1,0.4,0.2c0.1,0,0.2,0.1,0.3,0.2c3.2,1.6,8.9,7,10.7,13
		c0.9,3.2,0.6,5.8-1.1,8c-0.5,0.4-1.4,0.9-2.6,1.3v-3.3h-6.2v5c-2.6,0.5-5.8,1-9.3,1.5v-8.4H463v9.2c-2.9,0.3-6,0.6-9.3,1v-7h-6.2
		v7.6c-2.1,0.2-4.2,0.3-6.3,0.5l-3,0.2v-10.6H432v11c-3.1,0.2-6.2,0.4-9.3,0.6v-9.2H416v9.5c-3.1,0.1-6.3,0.3-9.3,0.4v-13.9h-6.2
		V343c-3.2,0.1-6.3,0.2-9.3,0.3v-16H385v16.2c-3.3,0.1-6.4,0.2-9.3,0.2v-17.2h-6.2V344c-3.8,0.1-6.9,0.1-9.3,0.2v-20.7H354v20.7
		c-0.7,0-1.8,0-3.1-0.1h-0.1c-0.2,0-0.4,0-0.6,0c-1.6,0-3.4-0.1-5.5-0.1v-23.7h-6.2v23.6l-3-0.1l0,0c-2.1,0-4.2,0-6.3,0v-26.7H323
		v26.7c-3.9,0-7,0.1-9.3,0.2v-31.6h-6.2v32.3c-2.7,0.5-5.9,1.2-9.3,2v-34.2H292v35.6c-3,0.7-6.2,1.3-9.3,1.8v-44.5h-6.2v45.4
		c-3,0.4-5.9,0.6-8.6,0.6c-0.4,0-0.8,0-1.3,0v-54.6h-6.2v53.9c-0.2,0-0.4-0.1-0.6-0.1c-3.1-0.8-6-1.6-8.7-2.4v-56.7h-6.2v54.9
		c-3.7-1.1-6.9-2.2-9.3-3.1v-58.8h-6.2V341c-0.5-0.2-0.8-0.3-0.8-0.3l-0.7-0.3l-7.9-0.7v-55.2h-6.2v54.6l-9.3-0.8v-48.4h-6.2v47.8
		l-9.3-0.8v-37h-7v36.5l-9.3-0.8v-27.7h-6.2V335l-9.4-0.8v-18.5h-6.2v9.2c-8.3-29.4-1.1-71.9,13-89.3c0.3-0.4,0.7-0.9,1.1-1.3
		c14.3,1.8,32.6,4.1,45.8,5.2l0.1,0.4l4.1-0.1c5.9,0.4,9.7,0.4,11.9,0.1c4.4-0.7,14.9-6.6,36.2-18.8c27-15.4,67.7-38.7,80.4-38.7
		c24.3,0,252,41.7,264.7,46C609.6,229.8,612.3,235.1,610.8,239.9L610.8,239.9z"/>
</g>
<g id="Layer_2_00000011748792605435232060000003227934865008653467_">
</g>
</svg>
