<?xml version="1.0" encoding="utf-8"?>
<!-- Generator: Adobe Illustrator 25.4.1, SVG Export Plug-In . SVG Version: 6.00 Build 0)  -->
<svg version="1.1" id="Layer_1" xmlns="http://www.w3.org/2000/svg" xmlns:xlink="http://www.w3.org/1999/xlink" x="0px" y="0px"
	 viewBox="0 0 360 360" style="enable-background:new 0 0 360 360;" xml:space="preserve">
<style type="text/css">
	.st0{display:none;}
	.st1{display:inline;opacity:0.3;}
	.st2{fill:#FFFFFF;stroke:#FFFFFF;stroke-miterlimit:10;}
	.st3{fill:none;stroke:#FFFFFF;stroke-width:2;stroke-miterlimit:10;}
	.st4{fill:#FFFFFF;stroke:#FFFFFF;stroke-width:2;stroke-miterlimit:10;}
</style>
<g id="Layer_1_00000059301646276426756200000009147829651050934186_" class="st0">
	<g id="nAUzT7_00000077307668908403021710000001322344144182220199_" class="st1">
		
			<image style="overflow:visible;enable-background:new    ;" width="1301" height="1398" id="nAUzT7" xlink:href="DD41A492C0606305.jpeg"  transform="matrix(0.1956 0 0 0.1956 52.7751 51.6348)">
		</image>
	</g>
</g>
<g id="Layer_2_00000159467282220746211990000000671605956218235061_">
	<path class="st2" d="M206,62.8"/>
	<path class="st2" d="M77.1,87.7"/>
	<path class="st3" d="M257.6,222.6c-0.1,0.2-0.3,0.2-0.4,0.1c-3.9-2.5-45.3-27.9-70.5-16.3c-0.1,0-0.2,0-0.2,0
		c-2.2-2.2-20.6-37.9-66.3-41.6c-1-0.1-1.9-0.6-2.6-1.3c-0.8-0.9-1.4-2-1.3-3.3c0.1-11.2-3.5-41.1-46.1-41.6c-0.3,0-0.4-0.4-0.2-0.5
		c4.5-2.8,24.3-16.6,7.2-30.3c0,0,0,0,0-0.1c1.9-0.6,61.6-20.9,90.5-6.4c0,0,0.1,0,0.1,0c0.8,0.1,14,2.6,25.8,2.8
		c0.1,0,0.1,0,0.2,0.1c1.4,1.6,21.3,23.1,45.4,24.4c0,0,0.1,0,0.1,0c0.8,0.5,11.2,7.1,14.5,24.3c0.1,0.5,0.3,0.9,0.6,1.3
		c3.9,4.6,30.6,37.6,36.1,71.9c0,0.2-0.1,0.3-0.3,0.3C287,206.6,262.5,208.3,257.6,222.6z"/>
	<path class="st4" d="M117.5,163.4"/>
	<path class="st4" d="M77.1,87.7c0,0,48.7-12,81.1,12c0,0,0.1,0,0.1,0c2.1,0.6,77.7,20.9,98.3,58c0,0.1,0.1,0.1,0.1,0.1
		c1.6,0.7,27.2,12.4,33.7,48.2"/>
	<path class="st4" d="M230.2,173"/>
	<path class="st4" d="M69.9,118.1c0,0,66-27.3,80.7-23.2"/>
	<path class="st4" d="M117.5,163.4c0,0,46.8-48.9,72-53"/>
	<path class="st4" d="M186.4,206.3c0,0,21.4-68.1,19.6-88.7"/>
	<path class="st4" d="M257.2,222.7c0,0,1.9-26.1-7.5-51.5s-16.2-37.8-19.5-39.9"/>
	<path class="st2" d="M118.5,267.3"/>
	<path class="st4" d="M106.4,231.9c2.5-3.3,7.2,2.5,5.5,5.3s-11.2,10.7-2.5,18.2c8.1,6.9,21.5-15.1,22.7-23.8
		c0.2-1.3,0.9-2.4,2.1-2.9c1.4-0.6,2.4-0.3,4.1,0.1c1.6,0.4,3.7,1,4.4,4c0.3,1.5-0.4,3-1.7,3.7l-0.4,0.2c-0.4,0.2-0.7,0.7-1.1,1.1
		c-2.4,3.1-4.1,6.2-7.3,11c-3.8,5.8-7.8,11.9-12.1,13.8C111.2,266.5,87.1,257.5,106.4,231.9z"/>
	<path class="st4" d="M207.6,95.6l9.1-10.9c0.1-0.2,0.4,0,0.3,0.2l-4.6,13.7"/>
	<path class="st4" d="M196.9,112.9l-7.1,12c-0.2,0.3,0.2,0.6,0.4,0.4c1.7-1.1,4.7-2.3,5.4,2.6c0,0.1,0.1,0.1,0.1,0l6.2-12.7"/>
	<polyline class="st4" points="190.4,125.6 189.6,131.3 136.4,228.2 	"/>
	<path class="st4" d="M141.1,230l50.1-93.6c0,0,2.5-4.6,4.4-8.5"/>
	<path class="st4" d="M234.9,90.8"/>
	<path class="st4" d="M205.8,139.6"/>
	<path class="st4" d="M198.6,131.1"/>
	<path class="st4" d="M207.1,130.9"/>
	<path class="st4" d="M200.1,122.2"/>
	<line class="st4" x1="204.5" y1="116.9" x2="205.8" y2="122.9"/>
	<path class="st4" d="M186.1,196.5"/>
	<path class="st4" d="M158.2,99.7c0,0,14.6-11.3,35.5-15.5"/>
	<line class="st4" x1="253.7" y1="132.9" x2="256.6" y2="157.8"/>
	<line class="st4" x1="255" y1="141.2" x2="261.4" y2="143.5"/>
	<line class="st4" x1="270.1" y1="167.4" x2="278" y2="170.4"/>
	<line class="st4" x1="255.1" y1="145.6" x2="266" y2="150.1"/>
	<line class="st4" x1="255.7" y1="151.4" x2="271" y2="157.8"/>
	<line class="st4" x1="256.3" y1="156.9" x2="275.1" y2="164.5"/>
	<g>
		<line class="st4" x1="86" y1="86.1" x2="86" y2="93.1"/>
		<line class="st4" x1="90.5" y1="86.1" x2="90.5" y2="93.1"/>
	</g>
	<g>
		<line class="st4" x1="90.5" y1="84.7" x2="90.5" y2="93.1"/>
		<line class="st4" x1="94.9" y1="84.7" x2="94.9" y2="93.1"/>
	</g>
	<g>
		<line class="st4" x1="94.9" y1="84.2" x2="94.9" y2="91.9"/>
		<line class="st4" x1="99.4" y1="84.2" x2="99.4" y2="91.9"/>
	</g>
	<g>
		<line class="st4" x1="99.4" y1="84.7" x2="99.4" y2="93.1"/>
		<line class="st4" x1="103.8" y1="84.7" x2="103.8" y2="93.1"/>
	</g>
	<g>
		<line class="st4" x1="103.8" y1="85.5" x2="103.8" y2="93.9"/>
		<line class="st4" x1="108.3" y1="85.5" x2="108.3" y2="93.9"/>
	</g>
	<g>
		<line class="st4" x1="108.3" y1="85.3" x2="108.3" y2="90.1"/>
		<line class="st4" x1="112.8" y1="85.3" x2="112.8" y2="90.1"/>
	</g>
	<g>
		<line class="st4" x1="81.6" y1="86.1" x2="81.6" y2="92.4"/>
		<line class="st4" x1="86" y1="86.1" x2="86" y2="93.1"/>
	</g>
	<g>
		<line class="st4" x1="112.8" y1="85.5" x2="112.8" y2="93.9"/>
		<line class="st4" x1="117.2" y1="85.5" x2="117.2" y2="93.9"/>
	</g>
	<g>
		<line class="st4" x1="117.2" y1="85.5" x2="117.2" y2="93.1"/>
		<line class="st4" x1="121.7" y1="85.5" x2="121.7" y2="93.1"/>
	</g>
	<g>
		<line class="st4" x1="121.7" y1="86.1" x2="121.7" y2="94.5"/>
		<line class="st4" x1="126.2" y1="86.1" x2="126.2" y2="94.5"/>
	</g>
	<g>
		<line class="st4" x1="126.2" y1="86.9" x2="126.2" y2="95.3"/>
		<line class="st4" x1="130.6" y1="86.9" x2="130.6" y2="95.3"/>
	</g>
	<g>
		<line class="st4" x1="130.6" y1="87.7" x2="130.6" y2="97.1"/>
		<line class="st4" x1="135.1" y1="87.7" x2="135.1" y2="96.1"/>
	</g>
	<g>
		<line class="st4" x1="135.1" y1="88.1" x2="135.1" y2="96.4"/>
		<line class="st4" x1="139.5" y1="89.7" x2="139.5" y2="95.3"/>
	</g>
	<line class="st4" x1="143.4" y1="91.4" x2="143.4" y2="94.7"/>
	<line class="st4" x1="194.1" y1="125.6" x2="139.7" y2="229.2"/>
	<path class="st2" d="M142.4,223.9"/>
	<line class="st4" x1="195.9" y1="125.2" x2="141.5" y2="228.7"/>
	<line class="st4" x1="192.3" y1="125.6" x2="137.8" y2="229.2"/>
	<path class="st4" d="M192.3,125.2c0,0.2,0,0.5,0,0.8c0,0.1,0,0.1,0,0.2c0.1,0.1,0.2,0.1,0.3,0.2c0.3,0,0.6,0.1,0.8-0.1
		c0.2-0.2,0.2-0.4,0.2-0.6c0-0.2,0-0.4-0.1-0.5c-0.1-0.1-0.3-0.1-0.4-0.1c-0.7,0-1.4,0-2,0c0,0.2,0.1,0.4,0.2,0.5s0.3,0.2,0.5,0.2
		c0.2,0.1,0.4,0.1,0.7,0.1s0.5-0.1,0.6-0.2c-0.2-0.1-0.4-0.2-0.6-0.1c0,0.1,0,0.1,0,0.2c0,0,0.1,0,0.1,0"/>
	<line class="st4" x1="136.4" y1="234.4" x2="140.6" y2="236.7"/>
	<line class="st4" x1="134.2" y1="237.6" x2="137.8" y2="240.1"/>
	<line class="st4" x1="132.7" y1="242" x2="135.2" y2="244.2"/>
	<line class="st4" x1="130.9" y1="245.8" x2="133.2" y2="247.3"/>
	<line class="st4" x1="129.1" y1="249.2" x2="130.9" y2="250.8"/>
	<line class="st4" x1="126.5" y1="252.8" x2="128.5" y2="254.3"/>
	<line class="st4" x1="124.1" y1="255.5" x2="126.1" y2="257.4"/>
	<line class="st4" x1="120.9" y1="258.3" x2="122.8" y2="260.8"/>
	<line class="st4" x1="117.8" y1="260" x2="117.8" y2="263.5"/>
	<line class="st4" x1="115" y1="260.2" x2="114.8" y2="263.7"/>
	<line class="st4" x1="111.4" y1="260" x2="110.9" y2="262.6"/>
	<line class="st4" x1="107.5" y1="235.4" x2="111" y2="238.3"/>
	<line class="st4" x1="105.9" y1="238" x2="109.2" y2="240.6"/>
	<line class="st4" x1="104.6" y1="241.1" x2="107.4" y2="243.1"/>
	<line class="st4" x1="103.8" y1="244.2" x2="106.3" y2="245.6"/>
	<path class="st4" d="M209,127.9"/>
	<path class="st4" d="M274.1,93"/>
	<line class="st4" x1="211.2" y1="127.9" x2="225" y2="127.9"/>
	<line class="st4" x1="217.1" y1="134.6" x2="233.1" y2="134.6"/>
	<line class="st4" x1="220.2" y1="138.7" x2="236.2" y2="138.7"/>
	<line class="st4" x1="213.7" y1="130.9" x2="229.7" y2="130.9"/>
	<line class="st4" x1="222.2" y1="143.5" x2="238.2" y2="143.5"/>
	<line class="st4" x1="223.9" y1="147.8" x2="239.9" y2="147.8"/>
	<line class="st4" x1="225.6" y1="152.2" x2="241.6" y2="152.2"/>
	<line class="st4" x1="228.2" y1="156.9" x2="244.2" y2="156.9"/>
	<line class="st4" x1="230.2" y1="163.3" x2="246.2" y2="163.3"/>
	<line class="st4" x1="235" y1="174.2" x2="251" y2="174.2"/>
	<line class="st4" x1="238" y1="185.9" x2="254" y2="185.9"/>
	<line class="st4" x1="241.2" y1="205" x2="257.3" y2="205"/>
	<line class="st4" x1="209" y1="125.2" x2="219.8" y2="125.2"/>
	<line class="st4" x1="205.7" y1="122.2" x2="215.1" y2="122.2"/>
	<line class="st4" x1="238.7" y1="141.2" x2="242.9" y2="141.2"/>
	<line class="st4" x1="240.6" y1="144" x2="246.2" y2="144"/>
	<line class="st4" x1="241.8" y1="146.8" x2="248.1" y2="146.8"/>
	<line class="st4" x1="243.2" y1="149.7" x2="251.1" y2="149.7"/>
	<line class="st4" x1="246" y1="153.1" x2="253.9" y2="153.1"/>
	<line class="st4" x1="280.7" y1="202.1" x2="288.7" y2="202.1"/>
	<line class="st4" x1="275.1" y1="195.5" x2="287.9" y2="195.5"/>
	<line class="st4" x1="267.1" y1="186.2" x2="283.1" y2="186.2"/>
	<line class="st4" x1="260.6" y1="174.7" x2="276.6" y2="174.7"/>
	<line class="st4" x1="254.5" y1="164.5" x2="266.8" y2="164.5"/>
	<path class="st4" d="M272.2,170"/>
	<path class="st4" d="M256.2,170"/>
	<line class="st4" x1="247.9" y1="156.9" x2="255.8" y2="156.9"/>
	<path class="st4" d="M239.4,137.8"/>
	<path class="st4" d="M235,137.8"/>
	<line class="st4" x1="166.1" y1="85.4" x2="181.4" y2="87.6"/>
	<path class="st4" d="M234.4,141.2"/>
	<path class="st4" d="M230,141.2"/>
	<line class="st4" x1="161" y1="88.8" x2="173.1" y2="91"/>
	<path class="st4" d="M229.6,145.3"/>
	<path class="st4" d="M225.2,145.3"/>
	<line class="st4" x1="156.3" y1="92.9" x2="166" y2="94.7"/>
	<path class="st4" d="M229.8,119.1"/>
	<path class="st4" d="M225.4,119.1"/>
	<line class="st4" x1="154.3" y1="96.6" x2="161.2" y2="97.6"/>
	<line class="st4" x1="182.2" y1="194.7" x2="190.2" y2="194.7"/>
	<line class="st4" x1="178.1" y1="189.4" x2="192" y2="189.4"/>
	<line class="st4" x1="178.4" y1="179.9" x2="194.5" y2="179.9"/>
	<line class="st4" x1="180.3" y1="170.4" x2="196.3" y2="170.4"/>
	<line class="st4" x1="184" y1="157.8" x2="200" y2="157.8"/>
	<line class="st4" x1="183" y1="163.4" x2="199" y2="163.4"/>
	<line class="st4" x1="185.6" y1="153.1" x2="201.6" y2="153.1"/>
	<line class="st4" x1="186.4" y1="148.6" x2="202.5" y2="148.6"/>
	<line class="st4" x1="187.9" y1="144" x2="203.9" y2="144"/>
	<line class="st4" x1="188.3" y1="139.9" x2="204.3" y2="139.9"/>
	<line class="st4" x1="188.9" y1="135.5" x2="204.9" y2="135.5"/>
	<line class="st4" x1="188.9" y1="131.3" x2="204.9" y2="131.3"/>
	<line class="st4" x1="190.6" y1="127.1" x2="206.6" y2="127.1"/>
	<line class="st4" x1="197.5" y1="123.9" x2="206.6" y2="123.9"/>
	<line class="st4" x1="199.4" y1="120.5" x2="204.9" y2="120.5"/>
	<line class="st4" x1="201.1" y1="117.1" x2="204.3" y2="117.1"/>
	<line class="st4" x1="247.9" y1="214" x2="257.3" y2="214"/>
	<line class="st4" x1="165.7" y1="112.4" x2="182.8" y2="112.4"/>
	<line class="st4" x1="154.4" y1="119.1" x2="169.9" y2="119.1"/>
	<line class="st4" x1="142.6" y1="126.4" x2="159.2" y2="126.4"/>
	<line class="st4" x1="133.4" y1="134.6" x2="148.3" y2="134.6"/>
	<line class="st4" x1="123.7" y1="142.4" x2="139.7" y2="142.4"/>
	<line class="st4" x1="118.1" y1="150.1" x2="131.2" y2="150.1"/>
	<line class="st4" x1="118.1" y1="157.8" x2="123.2" y2="157.8"/>
	<line class="st4" x1="168.9" y1="109.9" x2="186" y2="109.9"/>
	<line class="st4" x1="158.5" y1="115.7" x2="175.6" y2="115.7"/>
	<line class="st4" x1="147.6" y1="122.2" x2="164.8" y2="122.2"/>
	<line class="st4" x1="174.3" y1="107.4" x2="181.9" y2="107.4"/>
	<line class="st4" x1="200.9" y1="106.4" x2="206.9" y2="109.9"/>
	<line class="st4" x1="203.5" y1="102" x2="217.3" y2="110"/>
	<line class="st4" x1="204.3" y1="98.5" x2="221.7" y2="108.6"/>
</g>
</svg>
